<svg id="drupal" width="131" height="130" viewBox="0 0 131 130" fill="none" xmlns="http://www.w3.org/2000/svg">
<path d="M65.7502 10.8335C65.7502 34.1685 27.8335 43.3335 27.8335 75.8335C27.8335 85.8896 31.8283 95.5339 38.939 102.645C46.0498 109.755 55.694 113.75 65.7502 113.75C75.8063 113.75 85.4505 109.755 92.5613 102.645C99.672 95.5339 103.667 85.8896 103.667 75.8335C103.667 43.3335 65.7502 34.1414 65.7502 10.8335Z" stroke="white" stroke-width="10.8333" stroke-linecap="round" stroke-linejoin="round"/>
<path d="M65.7502 61.3708C62.1971 65.1019 58.5634 68.7554 54.8518 72.3287C49.4352 77.5125 44.0835 82.9833 44.0835 92.0833C44.0835 103.837 53.7793 113.75 65.7502 113.75C77.721 113.75 87.4168 103.854 87.4168 92.0833C87.4168 83.005 82.0597 77.5396 76.6756 72.3558C74.4006 70.1675 64.4393 59.5887 46.7918 40.625L65.7502 61.3708Z" stroke="white" stroke-width="10.8333" stroke-linecap="round" stroke-linejoin="round"/>
</svg>
