<svg width="130" height="130" viewBox="0 0 130 130" fill="none" xmlns="http://www.w3.org/2000/svg">
<path d="M101.562 47.1252L97.9063 45.9065C97.9063 45.094 98.3125 44.2815 98.3125 43.469C101.156 30.0627 99.125 19.094 93.0312 15.4377C86.9375 12.1877 77.1875 15.4377 67.4375 23.969C66.625 24.7815 65.4062 25.594 64.5937 26.4065C63.7812 26.0002 63.375 25.1877 62.5625 24.7815C52.8125 15.844 42.6562 12.1877 36.5625 15.844C30.4688 19.094 28.8437 29.6565 31.2812 42.2502C31.6875 43.469 31.6875 44.6877 32.0938 45.9065C30.4688 46.3127 29.25 46.719 28.0313 47.1252C15.8438 51.1877 8.125 58.094 8.125 64.594C8.125 71.5002 16.25 78.8127 28.8437 82.8752C29.6562 83.2815 30.875 83.6877 32.0938 83.6877C31.6875 84.9065 31.2812 86.5315 31.2812 87.7502C28.8437 100.344 30.875 110.094 36.5625 113.75C42.6562 117.406 52.8125 113.75 62.9688 104.813C63.7813 104 64.5938 103.188 65.4063 102.781C66.2188 103.594 67.4375 104.813 68.6562 105.625C78.4062 114.156 87.75 117.406 93.8438 113.75C99.9375 110.094 101.969 99.5315 99.5312 86.5315C99.5312 85.719 99.125 84.5002 98.7187 83.2815C99.5312 82.8752 100.344 82.8752 100.75 82.469C113.75 78.0002 122.281 71.094 122.281 64.1877C121.875 58.094 113.75 51.594 101.562 47.1252ZM71.0938 28.0315C79.625 20.719 87.3437 17.8752 91 19.9065C94.6562 21.9377 96.2813 30.8752 93.8438 42.6565C93.8438 43.469 93.4375 44.2815 93.4375 45.094C88.5625 43.8752 83.2812 43.0627 78.4062 42.6565C75.5625 38.594 72.3125 34.5315 68.6562 30.469L71.0938 28.0315ZM41.8438 70.6877C43.0625 72.719 43.875 74.7502 45.0938 76.7815C46.3125 78.8127 47.5312 80.844 48.75 82.469C45.0938 82.0627 41.8437 81.6565 38.1875 80.844C39 77.594 40.2188 74.344 41.8438 70.6877ZM41.8438 59.3127C40.2188 56.0627 39.4062 52.8127 38.1875 49.5627C41.4375 48.7502 45.0937 48.344 48.3437 47.9377C47.125 49.969 45.9063 51.594 44.6875 53.6252C43.875 55.2502 42.6563 57.2815 41.8438 59.3127ZM44.2812 65.0002C45.9062 61.7502 47.5313 58.9065 49.1563 55.6565C50.7813 52.8127 52.8125 49.5627 54.8438 46.719C58.0938 46.3127 61.75 46.3127 65.4063 46.3127C69.0625 46.3127 72.3125 46.3127 75.9688 46.719C78 49.5627 79.625 52.4065 81.25 55.6565C82.875 58.5002 84.5 61.7502 86.125 65.0002C84.5 68.2502 82.875 71.094 81.25 74.344C79.625 77.1877 77.5938 80.4377 75.9688 83.2815C72.7188 83.6877 69.0625 83.6877 65.4063 83.6877C61.75 83.6877 58.5 83.6877 55.25 83.2815C53.2188 80.4377 51.5937 77.594 49.5625 74.344C47.5312 71.094 45.9062 68.2502 44.2812 65.0002ZM84.9062 76.7815C86.125 74.7502 87.3438 72.719 88.1563 70.6877C89.7813 73.9377 91 77.1877 91.8125 80.844C88.1563 81.6565 84.9062 82.0627 81.25 82.469C82.875 80.4377 84.0937 78.4065 84.9062 76.7815ZM88.1563 59.3127C86.9375 57.2815 86.125 55.2502 84.9062 53.219C83.6875 51.1877 82.4688 49.5627 81.6563 47.5315C85.3125 47.9377 88.5625 48.7502 92.2188 49.1565C91 52.8127 89.7813 56.0627 88.1563 59.3127ZM65 33.719C67.4375 36.1565 69.4688 39.0002 71.5 41.844C67.0313 41.4377 62.5625 41.4377 58.0938 41.844C60.5313 39.0002 62.9688 36.1565 65 33.719ZM39 19.9065C42.6563 17.8752 51.1875 20.719 60.125 28.844L61.75 30.469C58.0937 34.1252 54.8438 38.1877 52 42.6565C46.7188 43.0627 41.8438 43.8752 36.9688 45.094C36.5625 43.8752 36.5625 42.6565 36.1562 41.4377C33.7187 30.469 35.3438 21.9377 39 19.9065ZM33.3125 79.6252C32.5 79.219 31.2813 79.219 30.4688 78.8127C24.7813 76.7815 20.3125 74.344 17.0625 71.9065C14.2187 69.469 13 67.0315 13 65.0002C13 60.9377 19.0938 55.6565 29.6563 52.0002C30.875 51.594 32.0938 51.1877 33.7188 50.7815C34.9375 55.6565 36.5625 60.5315 39 65.0002C36.5625 69.8752 34.9375 74.7502 33.3125 79.6252ZM59.7187 101.969C55.25 106.031 50.7813 108.469 47.125 110.094C43.4688 111.313 41.0313 111.313 39 110.5C35.3438 108.469 33.7188 100.344 35.75 89.7815C36.1563 88.1565 36.5625 86.9377 36.5625 85.3127C41.4375 86.5315 46.7188 87.344 52 87.344C54.8438 91.4065 58.0937 95.469 61.75 99.5315C60.9375 100.344 60.5312 101.156 59.7187 101.969ZM65 96.2815C62.5625 93.844 60.5313 91.0002 58.0938 88.1565H71.5C69.875 91.0002 67.4375 93.844 65 96.2815ZM94.6562 103.188C93.8437 106.844 92.625 109.281 91 110.094C87.3437 112.125 79.625 109.281 71.5 102.375C70.6875 101.563 69.4687 100.75 68.6562 99.9377C71.9062 96.2815 75.1563 92.219 78 87.7502C83.2813 87.344 88.1563 86.5315 93.4375 85.3127C93.8438 86.1252 93.8438 87.344 94.25 88.1565C95.4688 93.844 95.4687 99.1252 94.6562 103.188ZM98.7187 78.8127C97.9062 78.8127 97.5 79.219 96.6875 79.219C95.0625 74.344 93.0312 69.469 91 64.594C93.0312 60.1252 95.0625 55.2502 96.6875 50.3752C97.9062 50.7815 99.125 51.1877 99.9375 51.594C110.5 55.2502 117 60.5315 117 64.594C117 69.469 110.094 75.1565 98.7187 78.8127Z" fill="white"/>
<path d="M65 75.1561C67.0313 75.1561 69.0625 74.7498 70.6875 73.5311C72.3125 72.3123 73.5312 70.6873 74.3437 69.0623C75.1562 67.0311 75.1563 64.9998 74.75 62.9686C74.3437 60.9373 73.5313 59.3123 71.9063 57.6873C70.6875 56.0623 68.6562 55.2498 66.625 54.8436C64.5938 54.4373 62.5625 54.8436 60.5312 55.2498C58.5 56.0623 56.875 57.2811 56.0625 58.9061C54.8438 60.5311 54.4375 62.5623 54.4375 64.5936C54.4375 65.8123 54.8438 67.4373 55.25 68.6561C55.6563 69.8748 56.4688 71.0936 57.2813 71.9061C58.0938 72.7186 59.3125 73.5311 60.5312 73.9373C62.1563 74.7498 63.7813 75.1561 65 75.1561Z" fill="white"/>
</svg>
