<svg id="nodejs" width="114" height="130" viewBox="0 0 114 130" fill="none" xmlns="http://www.w3.org/2000/svg">
<g clip-path="url(#clip0_17_13)">
<path d="M56.875 128.984C55.1738 128.984 53.4473 128.527 51.9492 127.664L36.2832 118.396C33.9473 117.076 35.0898 116.619 35.8516 116.365C38.9746 115.273 39.6094 115.045 42.9355 113.141C43.291 112.938 43.748 113.014 44.1035 113.242L56.1387 120.377C56.5703 120.631 57.1797 120.631 57.5859 120.377L104.482 93.3105C104.914 93.0566 105.193 92.5488 105.193 92.041V37.9082C105.193 37.375 104.914 36.8926 104.457 36.6133L57.5859 9.57227C57.1543 9.31836 56.5703 9.31836 56.1387 9.57227L9.29297 36.6387C8.83594 36.8926 8.55664 37.4004 8.55664 37.9336V92.041C8.55664 92.5488 8.83594 93.0566 9.29297 93.2852L22.1406 100.699C29.123 104.178 33.3887 100.09 33.3887 95.9512V42.5293C33.3887 41.7676 33.998 41.1836 34.7598 41.1836H40.7012C41.4375 41.1836 42.0723 41.7676 42.0723 42.5293V95.9766C42.0723 105.27 36.9941 110.602 28.1836 110.602C25.4668 110.602 23.334 110.602 17.3926 107.656L5.10352 100.572C2.05664 98.8203 0.177734 95.5449 0.177734 92.0156V37.9082C0.177734 34.4043 2.05664 31.1035 5.10352 29.3516L51.9492 2.28516C54.9199 0.609375 58.8555 0.609375 61.8008 2.28516L108.697 29.377C111.744 31.1289 113.623 34.4043 113.623 37.9336V92.041C113.623 95.5449 111.744 98.8203 108.697 100.598L61.8008 127.664C60.3027 128.527 58.6016 128.984 56.875 128.984ZM94.7324 75.6387C94.7324 65.5078 87.8769 62.8164 73.4805 60.9121C58.9062 58.9824 57.4336 57.9922 57.4336 54.5898C57.4336 51.7715 58.6777 48.0137 69.4687 48.0137C79.0918 48.0137 82.6465 50.0957 84.1191 56.5957C84.2461 57.2051 84.8047 57.6621 85.4395 57.6621H91.5332C91.9141 57.6621 92.2695 57.5098 92.5234 57.2305C92.7773 56.9512 92.9043 56.5703 92.8789 56.1895C91.9394 44.9922 84.5 39.7871 69.4687 39.7871C56.0879 39.7871 48.1152 45.4238 48.1152 54.8945C48.1152 65.1523 56.0625 67.9961 68.8848 69.2656C84.2461 70.7637 85.4395 73.0234 85.4395 76.0449C85.4395 81.2754 81.2246 83.5098 71.3477 83.5098C58.9316 83.5098 56.2148 80.3867 55.3008 74.2168C55.1992 73.5566 54.6406 73.0742 53.9551 73.0742H47.8867C47.125 73.0742 46.541 73.6836 46.541 74.4199C46.541 82.3164 50.832 91.7363 71.373 91.7363C86.2012 91.7109 94.7324 85.8457 94.7324 75.6387Z" fill="white"/>
</g>
<defs>
<clipPath id="clip0_17_13">
<rect width="113.75" height="130" fill="white"/>
</clipPath>
</defs>
</svg>
