<svg id="sass" width="130" height="130" viewBox="0 0 130 130" fill="none" xmlns="http://www.w3.org/2000/svg">
<g clip-path="url(#clip0_17_5)">
<path d="M129.944 83.2992C129.571 80.2726 128.037 77.6472 125.374 75.4865C125.341 75.4462 125.304 75.4088 125.265 75.3747L125.13 75.2783L125.087 75.2478L123.673 74.2322L123.624 74.1966L123.444 74.0697C123.378 74.0311 123.307 74.0012 123.233 73.9808C118.759 71.3173 111.353 69.4511 100.021 73.4501C97.317 68.9001 97.0098 65.254 98.8202 59.6681C99.1426 58.6956 98.843 58.0533 97.8782 57.6368C95.9383 56.8117 93.2825 57.2331 91.3985 57.7308C90.52 57.9593 89.9918 58.457 89.8243 59.2111C88.6309 64.797 85.1626 69.9005 81.8084 74.8263L81.6104 75.1158C79.5436 70.7333 79.9727 67.3386 81.4124 63.0857C81.6993 62.2376 81.4733 61.674 80.6786 61.2525C78.4594 60.1074 75.1307 60.8945 73.8053 61.2855C72.1245 61.7755 70.3217 66.3179 68.3083 71.7566C67.8004 73.1251 67.3637 74.2956 67.1022 74.8415C66.4801 76.1111 65.886 77.5583 65.2563 79.0945C63.8344 82.5704 62.2323 86.4831 59.942 88.9409C59.1092 87.1001 60.4194 84.198 61.6915 81.3822C63.1971 78.0534 64.619 74.9075 62.9813 72.8991C62.7223 72.5816 62.401 72.3205 62.0373 72.1318C61.6735 71.9432 61.275 71.831 60.8663 71.8023C60.333 71.7617 59.7977 71.8487 59.3047 72.0562C59.4749 70.6216 59.4825 69.4892 59.0635 68.1206C58.4643 66.1681 56.9079 65.0738 54.7649 65.1322C49.8848 65.2743 45.7563 68.9103 43.1487 71.9368C41.412 73.9681 37.5627 75.5169 34.1832 76.8753C32.8477 77.4415 31.5782 77.9493 30.5194 78.4572C28.8309 77.0302 26.6854 75.5906 24.4256 74.0697C18.078 69.8091 10.8848 64.9773 10.636 58.4265C10.2805 48.7501 21.3 41.887 30.918 36.9892C38.2077 33.2822 44.5452 30.8243 50.2936 29.4812C58.3678 27.5947 65.1877 27.9755 70.5604 30.6085C73.5006 32.0482 74.8768 35.1788 74.0034 38.3984C71.7182 46.7646 62.25 52.4978 54.153 55.0775C49.2754 56.6314 45.1241 57.2814 41.4577 57.0681C36.862 56.8015 33.1092 54.496 31.5045 53.5134C31.2474 53.3378 30.9756 53.1849 30.692 53.0564L30.6184 53.0386C30.4731 53.0024 30.3206 53.007 30.1778 53.0518C30.0349 53.0966 29.9071 53.1799 29.8084 53.2925C29.4784 53.6861 29.5952 54.3081 29.7145 54.623C31.276 58.7033 34.5006 61.2804 39.2969 62.2833C40.8666 62.5977 42.4645 62.75 44.0653 62.7378C55.2905 62.7378 69.6133 56.2658 74.8743 50.9363C78.462 47.3054 81.0747 43.573 82.1563 37.1365C83.2862 30.3952 78.7159 25.7107 74.0592 23.5525C62.7426 18.3296 49.8899 20.3939 41.0997 23.0447C30.8164 26.1449 20.1778 31.7816 11.9157 38.5152C1.72895 46.8103 -1.95269 54.5113 0.967233 61.4302C3.96587 68.5218 11.2784 72.9575 18.3497 77.2486C20.6348 78.6324 22.8082 79.9501 24.7659 81.3111C24.1768 81.598 23.575 81.89 22.9631 82.182C17.0268 85.0587 10.2932 88.296 6.55825 93.6458C3.84653 97.5433 3.33872 101.423 5.05004 105.178C5.96411 107.176 7.58911 108.532 9.84633 109.208C11.0205 109.54 12.2366 109.702 13.4569 109.688C17.852 109.688 22.6889 107.91 25.3219 106.268C29.9735 103.348 32.9873 99.4273 34.2823 94.6158C35.435 90.3349 35.1582 86.082 33.4825 82.2861L39.1827 79.4119C36.4329 88.5525 38.5403 94.0115 40.8559 97.0228C41.709 98.1324 43.2477 98.8001 44.9666 98.8306C46.6856 98.8611 48.2674 98.2136 49.1612 97.1116C50.8522 95.0169 52.1014 92.5667 53.2516 90.1165C53.1907 91.7161 53.2668 93.3361 53.8127 94.7097C54.3028 95.9462 55.1102 96.7663 56.1512 97.0812C57.2582 97.4189 58.5557 97.1345 59.8049 96.2814C65.434 92.4296 69.2832 83.1849 72.3758 75.7531C72.8151 74.6968 73.2366 73.6812 73.6454 72.7316C74.4105 75.4697 75.4748 78.1153 76.8192 80.6204C77.1188 81.1638 77.0934 81.4025 76.6872 81.8493C76.0752 82.5197 75.2221 83.3296 74.3182 84.1878C71.5811 86.7853 68.1737 90.0277 67.7167 92.879C67.5389 94.0216 68.326 95.0626 69.5473 95.2988C73.2213 96.03 77.6469 94.9611 81.3895 92.4423C84.7918 90.1572 86.0715 86.9706 85.1981 82.9995C84.3526 79.1757 86.2823 74.4277 90.9338 68.8773C91.6956 72.0587 92.7112 74.6308 94.1127 76.8829L94.0747 76.9134C90.6875 79.8714 86.0461 83.9212 86.7672 88.8343C86.8277 89.3016 86.985 89.7511 87.2289 90.1541C87.4729 90.5572 87.7981 90.905 88.184 91.1753C88.5964 91.4537 89.0619 91.6439 89.5513 91.7339C90.0406 91.824 90.5433 91.8118 91.0278 91.6984C95.4635 90.7665 98.8024 88.8902 101.23 85.9677C103.657 83.0452 102.771 79.8054 101.953 77.2917C108.301 75.5702 113.953 75.6134 119.244 77.4187C122.215 78.4343 124.345 80.1025 125.574 82.4054C127.121 85.3025 126.285 87.9761 123.215 89.9337C122.273 90.5355 121.819 90.9036 121.791 91.3683C121.785 91.4761 121.805 91.5839 121.849 91.6824C121.893 91.781 121.96 91.8674 122.045 91.9345C122.4 92.2265 123.497 92.7343 125.978 91.1728C128.263 89.7382 129.604 87.7857 129.947 85.3329C130.015 84.6567 130.015 83.9752 129.944 83.2992ZM28.45 89.662L28.4247 89.987C28.0286 93.7042 26.1395 96.9441 22.8006 99.6355C20.7034 101.326 18.4258 102.365 16.3895 102.563C14.9676 102.7 13.9342 102.507 13.3198 101.987C12.8602 101.598 12.6139 101.017 12.5581 100.209C12.1416 93.7398 22.2877 87.3109 27.9981 85.1958C28.4056 86.6473 28.5585 88.1584 28.45 89.662ZM54.4373 71.4163C53.4979 76.7712 50.7582 86.8792 46.452 90.8021C46.2463 90.99 46.0737 91.056 45.995 91.0382C45.9163 91.0204 45.8553 90.9265 45.7918 90.7843C44.3547 87.4531 44.8854 81.8265 47.0614 77.406C48.7346 73.9986 51.1239 71.7413 53.795 71.0583C53.9058 71.0277 54.0202 71.0115 54.1352 71.0101C54.2251 71.0038 54.3146 71.0279 54.3891 71.0786C54.4205 71.1283 54.4411 71.1841 54.4494 71.2423C54.4577 71.3005 54.4536 71.3598 54.4373 71.4163ZM75.636 90.9366C74.826 91.7822 73.7165 91.6679 73.978 91.3581L78.1014 86.9808C77.7688 88.4865 76.7862 89.7331 75.636 90.9366ZM92.7417 87.1509C92.3495 87.3441 91.9252 87.4638 91.4899 87.5038C91.3731 85.2009 93.6049 82.6085 95.8063 80.8794C96.3979 83.2814 95.1868 85.8204 92.7417 87.1509Z" fill="white"/>
</g>
<defs>
<clipPath id="clip0_17_5">
<rect width="130" height="130" fill="white"/>
</clipPath>
</defs>
</svg>
