<svg id="javascript" width="130" height="130" viewBox="0 0 130 130" fill="none" xmlns="http://www.w3.org/2000/svg">
<path d="M20.3125 20.3125V109.688H109.688V20.3125H20.3125ZM28.4375 28.4375H101.562V101.562H28.4375V28.4375ZM82.2412 60.9375C76.4522 60.9375 72.7106 64.6425 72.7106 69.55C72.7106 74.8719 75.8388 77.4191 80.5431 79.4219L82.1681 80.1247C85.1459 81.4369 86.9172 82.2006 86.9172 84.4391C86.9172 86.3281 85.1825 87.685 82.4809 87.685C79.2797 87.685 77.4597 85.9869 76.0703 83.7078L70.7484 86.7547C72.6334 90.5369 76.57 93.4375 82.6313 93.4375C88.8063 93.4375 93.4375 90.2362 93.4375 84.37C93.4375 78.8856 90.3094 76.4522 84.7478 74.1L83.1309 73.4013C80.3156 72.1663 79.1172 71.3578 79.1172 69.4281C79.1172 67.8438 80.3116 66.6087 82.2453 66.6087C84.1344 66.6087 85.3247 67.4213 86.4459 69.4281L91.5484 66.1497C89.3872 62.3716 86.4094 60.9375 82.2453 60.9375H82.2412ZM58.4756 61.3275V83.5209C58.4756 86.7628 57.0863 87.6037 54.9616 87.6037C52.7272 87.6037 51.7603 86.0641 50.7569 84.2481L45.435 87.4575C46.9788 90.7359 50.0216 93.4375 55.2337 93.4375C61.0187 93.4375 65 90.35 65 83.59V61.3275H58.4797H58.4756Z" fill="white"/>
</svg>
