<svg id="figma" width="131" height="130" viewBox="0 0 131 130" fill="none" xmlns="http://www.w3.org/2000/svg">
<path d="M97.3105 48.75C100.563 45.6806 102.82 41.7057 103.788 37.3398C104.757 32.9738 104.393 28.4176 102.744 24.2607C101.095 20.1037 98.2363 16.5372 94.5381 14.0227C90.8398 11.5082 86.4721 10.1613 81.9999 10.1562H45.4374C40.9653 10.1613 36.5976 11.5082 32.8993 14.0227C29.2011 16.5372 26.3425 20.1037 24.6934 24.2607C23.0442 28.4176 22.6805 32.9738 23.6492 37.3398C24.6179 41.7057 26.8744 45.6806 30.1269 48.75C27.8548 50.8833 26.0552 53.4694 24.8444 56.3412C23.6336 59.2131 23.0384 62.3069 23.0972 65.4231C23.1561 68.5392 23.8677 71.6083 25.1861 74.4324C26.5045 77.2565 28.4004 79.7727 30.7515 81.8187C27.8112 84.5896 25.6058 88.048 24.3336 91.8826C23.0615 95.7173 22.7624 99.8081 23.4634 103.787C24.1644 107.766 25.8434 111.508 28.3495 114.677C30.8555 117.846 34.11 120.343 37.8202 121.942C41.5304 123.541 45.5799 124.193 49.6046 123.839C53.6292 123.485 57.5028 122.136 60.8768 119.914C64.2508 117.691 67.0195 114.665 68.9338 111.107C70.8482 107.549 71.8481 103.571 71.8437 99.5312V84.891C76.6302 87.3097 82.1269 87.926 87.3302 86.6277C92.5336 85.3293 97.0963 82.2027 100.185 77.8189C103.274 73.4351 104.684 68.0864 104.156 62.7496C103.628 57.4128 101.198 52.4438 97.3105 48.75ZM92.1562 32.5C92.1562 35.1936 91.0862 37.7769 89.1815 39.6816C87.2768 41.5862 84.6936 42.6562 81.9999 42.6562H71.8437V22.3438H81.9999C84.6936 22.3438 87.2768 23.4138 89.1815 25.3184C91.0862 27.2231 92.1562 29.8064 92.1562 32.5ZM35.2812 32.5C35.2812 29.8064 36.3512 27.2231 38.2559 25.3184C40.1606 23.4138 42.7438 22.3438 45.4374 22.3438H59.6562V42.6562H45.4374C42.7438 42.6562 40.1606 41.5862 38.2559 39.6816C36.3512 37.7769 35.2812 35.1936 35.2812 32.5ZM45.4374 75.1562C42.7438 75.1562 40.1606 74.0862 38.2559 72.1816C36.3512 70.2769 35.2812 67.6936 35.2812 65C35.2812 62.3064 36.3512 59.7231 38.2559 57.8184C40.1606 55.9138 42.7438 54.8438 45.4374 54.8438H59.6562V75.1562H45.4374ZM59.6562 99.5312C59.6562 101.942 58.9414 104.298 57.6022 106.302C56.2631 108.306 54.3596 109.869 52.1326 110.791C49.9057 111.713 47.4552 111.955 45.091 111.485C42.7269 111.014 40.5553 109.854 38.8508 108.149C37.1464 106.445 35.9856 104.273 35.5154 101.909C35.0451 99.5448 35.2865 97.0943 36.2089 94.8673C37.1314 92.6403 38.6935 90.7369 40.6977 89.3977C42.7019 88.0585 45.0582 87.3438 47.4687 87.3438H59.6562V99.5312ZM81.9999 75.1562C79.9912 75.1562 78.0276 74.5606 76.3574 73.4446C74.6872 72.3286 73.3855 70.7424 72.6168 68.8866C71.8481 67.0308 71.647 64.9887 72.0388 63.0186C72.4307 61.0485 73.398 59.2388 74.8184 57.8184C76.2388 56.3981 78.0484 55.4308 80.0186 55.0389C81.9887 54.647 84.0308 54.8481 85.8866 55.6168C87.7424 56.3856 89.3286 57.6873 90.4446 59.3575C91.5605 61.0277 92.1562 62.9913 92.1562 65C92.1562 67.6936 91.0862 70.2769 89.1815 72.1816C87.2768 74.0862 84.6936 75.1562 81.9999 75.1562Z" fill="white"/>
</svg>
