<svg id="html" width="130" height="130" viewBox="0 0 130 130" fill="none" xmlns="http://www.w3.org/2000/svg">
<path d="M65 77.1875C65 78.2649 64.572 79.2983 63.8101 80.0601C63.0483 80.822 62.0149 81.25 60.9375 81.25H56.875V105.625C56.875 106.702 56.447 107.736 55.6851 108.498C54.9233 109.259 53.8899 109.688 52.8125 109.688C51.7351 109.688 50.7017 109.259 49.9399 108.498C49.178 107.736 48.75 106.702 48.75 105.625V81.25H44.6875C43.6101 81.25 42.5767 80.822 41.8149 80.0601C41.053 79.2983 40.625 78.2649 40.625 77.1875C40.625 76.1101 41.053 75.0767 41.8149 74.3149C42.5767 73.553 43.6101 73.125 44.6875 73.125H60.9375C62.0149 73.125 63.0483 73.553 63.8101 74.3149C64.572 75.0767 65 76.1101 65 77.1875ZM32.5 73.125C31.4226 73.125 30.3892 73.553 29.6274 74.3149C28.8655 75.0767 28.4375 76.1101 28.4375 77.1875V87.3438H20.3125V77.1875C20.3125 76.1101 19.8845 75.0767 19.1226 74.3149C18.3608 73.553 17.3274 73.125 16.25 73.125C15.1726 73.125 14.1392 73.553 13.3774 74.3149C12.6155 75.0767 12.1875 76.1101 12.1875 77.1875V105.625C12.1875 106.702 12.6155 107.736 13.3774 108.498C14.1392 109.259 15.1726 109.688 16.25 109.688C17.3274 109.688 18.3608 109.259 19.1226 108.498C19.8845 107.736 20.3125 106.702 20.3125 105.625V95.4688H28.4375V105.625C28.4375 106.702 28.8655 107.736 29.6274 108.498C30.3892 109.259 31.4226 109.688 32.5 109.688C33.5774 109.688 34.6108 109.259 35.3726 108.498C36.1345 107.736 36.5625 106.702 36.5625 105.625V77.1875C36.5625 76.1101 36.1345 75.0767 35.3726 74.3149C34.6108 73.553 33.5774 73.125 32.5 73.125ZM121.875 101.562H115.781V77.1875C115.781 76.1101 115.353 75.0767 114.591 74.3149C113.83 73.553 112.796 73.125 111.719 73.125C110.641 73.125 109.608 73.553 108.846 74.3149C108.084 75.0767 107.656 76.1101 107.656 77.1875V105.625C107.656 106.702 108.084 107.736 108.846 108.498C109.608 109.259 110.641 109.688 111.719 109.688H121.875C122.952 109.688 123.986 109.259 124.748 108.498C125.509 107.736 125.938 106.702 125.938 105.625C125.938 104.548 125.509 103.514 124.748 102.752C123.986 101.991 122.952 101.562 121.875 101.562ZM98.5867 73.2723C97.7304 73.0344 96.8197 73.0839 95.9942 73.4131C95.1687 73.7424 94.4739 74.3334 94.0164 75.0953L85.3125 89.6035L76.6086 75.0953C76.1514 74.3333 75.457 73.7422 74.6317 73.4127C73.8065 73.0831 72.8959 73.0332 72.0396 73.2706C71.1833 73.508 70.4284 74.0197 69.8907 74.7271C69.353 75.4346 69.062 76.2989 69.0625 77.1875V105.625C69.0625 106.702 69.4905 107.736 70.2524 108.498C71.0142 109.259 72.0476 109.688 73.125 109.688C74.2024 109.688 75.2358 109.259 75.9976 108.498C76.7595 107.736 77.1875 106.702 77.1875 105.625V91.8531L81.8289 99.5922C82.1898 100.194 82.7004 100.692 83.3109 101.037C83.9214 101.383 84.611 101.565 85.3125 101.565C86.014 101.565 86.7036 101.383 87.3141 101.037C87.9246 100.692 88.4352 100.194 88.7961 99.5922L93.4375 91.8531V105.625C93.4375 106.702 93.8655 107.736 94.6274 108.498C95.3892 109.259 96.4226 109.688 97.5 109.688C98.5774 109.688 99.6108 109.259 100.373 108.498C101.134 107.736 101.562 106.702 101.562 105.625V77.1875C101.563 76.2993 101.272 75.4356 100.734 74.7285C100.197 74.0214 99.4425 73.5098 98.5867 73.2723ZM105.625 60.9375C104.548 60.9375 103.514 60.5095 102.752 59.7476C101.991 58.9858 101.562 57.9524 101.562 56.875V48.75H77.1875C76.1101 48.75 75.0767 48.322 74.3149 47.5601C73.553 46.7983 73.125 45.7649 73.125 44.6875V20.3125H28.4375V56.875C28.4375 57.9524 28.0095 58.9858 27.2476 59.7476C26.4858 60.5095 25.4524 60.9375 24.375 60.9375C23.2976 60.9375 22.2642 60.5095 21.5024 59.7476C20.7405 58.9858 20.3125 57.9524 20.3125 56.875V20.3125C20.3125 18.1576 21.1685 16.091 22.6923 14.5673C24.216 13.0435 26.2826 12.1875 28.4375 12.1875H77.1875C77.7212 12.1871 78.2497 12.2918 78.7428 12.4957C79.236 12.6996 79.6842 12.9986 80.0617 13.3758L108.499 41.8133C108.876 42.1908 109.175 42.639 109.379 43.1322C109.583 43.6253 109.688 44.1538 109.688 44.6875V56.875C109.688 57.9524 109.259 58.9858 108.498 59.7476C107.736 60.5095 106.702 60.9375 105.625 60.9375ZM95.8191 40.625L81.25 26.0559V40.625H95.8191Z" fill="white"/>
</svg>
