<svg id="css" width="130" height="130" viewBox="0 0 130 130" fill="none" xmlns="http://www.w3.org/2000/svg">
<path d="M24.375 91.4062C24.375 95.809 27.168 99.5312 30.4688 99.5312C31.1748 99.5082 31.8688 99.3419 32.5087 99.0425C33.1485 98.743 33.7209 98.3168 34.191 97.7895C35.3089 96.6218 36.8448 95.946 38.4609 95.9107C40.077 95.8755 41.6409 96.4837 42.8086 97.6016C43.9763 98.7194 44.6521 100.255 44.6873 101.871C44.7225 103.488 44.1143 105.051 42.9965 106.219C41.3932 107.941 39.4549 109.317 37.3006 110.263C35.1463 111.209 32.8215 111.704 30.4688 111.719C20.3887 111.719 12.1875 102.578 12.1875 91.4062C12.1875 80.2344 20.3887 71.0938 30.4688 71.0938C32.8215 71.1085 35.1463 71.604 37.3006 72.5497C39.4549 73.4954 41.3932 74.8715 42.9965 76.5934C44.1143 77.761 44.7225 79.325 44.6873 80.9411C44.6521 82.5572 43.9763 84.0931 42.8086 85.2109C41.6409 86.3288 40.077 86.937 38.4609 86.9018C36.8448 86.8665 35.3089 86.1907 34.191 85.023C33.7209 84.4957 33.1485 84.0695 32.5087 83.77C31.8688 83.4706 31.1748 83.3043 30.4688 83.2812C27.168 83.2813 24.375 86.9934 24.375 91.4062ZM73.8918 88.5066C71.2918 86.7547 68.1434 85.8457 65.3606 85.0434C63.9996 84.6754 62.6588 84.2364 61.3438 83.7281C62.5879 83.1289 66.2746 83.068 69.5043 83.8957C71.0673 84.3085 72.7302 84.0835 74.1273 83.2702C75.5243 82.4569 76.5411 81.1219 76.9539 79.559C77.3667 77.996 77.1417 76.3331 76.3284 74.936C75.5151 73.5389 74.1802 72.5222 72.6172 72.1094C70.6176 71.6161 68.5785 71.3 66.5234 71.1648C61.4809 70.8297 57.3828 71.7133 54.2852 73.7902C52.7749 74.8041 51.5059 76.1374 50.5678 77.6958C49.6298 79.2543 49.0456 80.9998 48.8566 82.809C48.298 87.2473 50.1211 91.0711 53.9906 93.5695C56.418 95.1387 59.2516 95.9563 61.9887 96.7484C63.5121 97.2004 66.0207 97.9164 67.0059 98.541C66.9886 98.6659 66.9526 98.7874 66.8992 98.9016C66.2035 99.6887 62.0344 99.8105 58.5762 98.8711C57.8005 98.6387 56.9863 98.5633 56.1812 98.6492C55.376 98.7351 54.5961 98.9806 53.8869 99.3713C53.1777 99.7621 52.5535 100.29 52.0508 100.925C51.548 101.56 51.1768 102.288 50.9588 103.068C50.7408 103.848 50.6805 104.663 50.7812 105.467C50.8819 106.27 51.1418 107.045 51.5456 107.747C51.9493 108.449 52.4889 109.064 53.1328 109.554C53.7767 110.045 54.512 110.403 55.2957 110.607C57.9804 111.329 60.7471 111.703 63.5273 111.719C66.8078 111.719 70.4996 111.125 73.5465 109.104C75.0892 108.083 76.3876 106.735 77.3489 105.155C78.3101 103.575 78.9105 101.802 79.107 99.9629C79.7266 95.2301 77.8629 91.1676 73.8918 88.4965V88.5066ZM108.423 88.5066C105.823 86.7547 102.675 85.8457 99.8918 85.0434C98.5308 84.6754 97.19 84.2364 95.875 83.7281C97.1191 83.1289 100.806 83.068 104.036 83.8957C105.599 84.3085 107.261 84.0835 108.659 83.2702C110.056 82.4569 111.072 81.1219 111.485 79.559C111.898 77.996 111.673 76.3331 110.86 74.936C110.046 73.5389 108.711 72.5222 107.148 72.1094C105.149 71.6161 103.11 71.3 101.055 71.1648C96.0121 70.8297 91.9141 71.7133 88.8164 73.7902C87.3062 74.8041 86.0371 76.1374 85.0991 77.6958C84.161 79.2543 83.5769 80.9998 83.3879 82.809C82.8293 87.2473 84.6523 91.0711 88.5219 93.5695C90.9492 95.1387 93.7828 95.9563 96.5199 96.7484C98.0434 97.2004 100.552 97.9164 101.537 98.541C101.52 98.6659 101.484 98.7874 101.43 98.9016C100.735 99.6887 96.5656 99.8105 93.1074 98.8711C92.3318 98.6387 91.5176 98.5633 90.7124 98.6492C89.9073 98.7351 89.1273 98.9806 88.4182 99.3713C87.709 99.7621 87.0848 100.29 86.582 100.925C86.0793 101.56 85.7081 102.288 85.4901 103.068C85.2721 103.848 85.2117 104.663 85.3124 105.467C85.4132 106.27 85.673 107.045 86.0768 107.747C86.4806 108.449 87.0202 109.064 87.6641 109.554C88.308 110.045 89.0432 110.403 89.827 110.607C92.5117 111.329 95.2783 111.703 98.0586 111.719C101.339 111.719 105.031 111.125 108.078 109.104C109.62 108.083 110.919 106.735 111.88 105.155C112.841 103.575 113.442 101.802 113.638 99.9629C114.258 95.2301 112.394 91.1676 108.423 88.4965V88.5066ZM18.2812 54.8438V20.3125C18.2813 17.6189 19.3513 15.0356 21.2559 13.1309C23.1606 11.2263 25.7439 10.1563 28.4375 10.1563H77.1875C77.988 10.1556 78.7807 10.3127 79.5205 10.6185C80.2602 10.9244 80.9325 11.373 81.4988 11.9387L109.936 40.3762C110.502 40.9425 110.951 41.6148 111.256 42.3545C111.562 43.0943 111.719 43.887 111.719 44.6875V54.8438C111.719 56.4599 111.077 58.0099 109.934 59.1527C108.791 60.2955 107.241 60.9375 105.625 60.9375C104.009 60.9375 102.459 60.2955 101.316 59.1527C100.173 58.0099 99.5312 56.4599 99.5312 54.8438V52.8125H75.1562C73.5401 52.8125 71.9901 52.1705 70.8473 51.0277C69.7045 49.8849 69.0625 48.3349 69.0625 46.7188V22.3438H30.4688V54.8438C30.4688 56.4599 29.8267 58.0099 28.6839 59.1527C27.5411 60.2955 25.9912 60.9375 24.375 60.9375C22.7588 60.9375 21.2089 60.2955 20.0661 59.1527C18.9233 58.0099 18.2812 56.4599 18.2812 54.8438ZM81.25 40.625H92.9297L81.25 28.9453V40.625Z" fill="white"/>
</svg>
