<svg id="php" width="131" height="130" viewBox="0 0 131 130" fill="none" xmlns="http://www.w3.org/2000/svg">
<g clip-path="url(#clip0_17_15)">
<path d="M38.7208 55.288H33.6075L30.8179 69.6313H35.3571C38.3687 69.6313 40.6112 69.0626 42.0846 67.9305C43.5579 66.793 44.5492 64.9026 45.0637 62.2484C45.5621 59.7026 45.3346 57.9042 44.3921 56.8588C43.4442 55.8134 41.5592 55.288 38.7208 55.288ZM65.75 30.8101C29.8537 30.8101 0.75 46.1176 0.75 65.0001C0.75 83.8826 29.8537 99.1955 65.75 99.1955C101.646 99.1955 130.75 83.8826 130.75 65.0001C130.75 46.1176 101.646 30.8101 65.75 30.8101ZM48.0917 71.1696C46.6779 72.5238 44.9771 73.5421 43.1246 74.1542C41.3046 74.7392 38.9808 75.0426 36.1642 75.0426H29.7671L27.9958 84.148H20.5317L27.1942 49.8821H41.5483C45.8654 49.8821 49.0125 51.0142 50.995 53.2838C52.9775 55.548 53.5733 58.7113 52.7825 62.7738C52.4796 64.3813 51.9219 65.9301 51.1304 67.3617C50.3558 68.743 49.3429 70.0159 48.0917 71.1696ZM69.8883 75.0426L72.8296 59.8813C73.1708 58.1588 73.0408 56.978 72.4612 56.3551C71.8817 55.7267 70.6412 55.4126 68.74 55.4126H62.825L59.0117 75.048H51.6017L58.2642 40.7767H65.6687L63.8975 49.8876H70.495C74.6496 49.8876 77.5096 50.6134 79.0858 52.0596C80.6621 53.5059 81.1333 55.8513 80.5104 59.0959L77.4121 75.0426H69.8883ZM111.039 62.7738C110.741 64.3827 110.183 65.9323 109.387 67.3617C108.612 68.743 107.599 70.0159 106.348 71.1696C104.933 72.5197 103.237 73.539 101.381 74.1542C99.5608 74.7392 97.2371 75.0426 94.415 75.0426H88.0233L86.2521 84.1534H78.7879L85.4504 49.8876H99.7992C104.116 49.8876 107.263 51.0196 109.246 53.2892C111.228 55.548 111.83 58.7113 111.039 62.7738ZM96.9825 55.288H91.8746L89.0796 69.6313H93.6187C96.6358 69.6313 98.8783 69.0626 100.346 67.9305C101.82 66.793 102.811 64.9026 103.331 62.2484C103.829 59.7026 103.596 57.9042 102.654 56.8588C101.711 55.8134 99.8154 55.288 96.9825 55.288Z" fill="white"/>
</g>
<defs>
<clipPath id="clip0_17_15">
<rect width="130" height="130" fill="white" transform="translate(0.75)"/>
</clipPath>
</defs>
</svg>
